<?xml version="1.0" encoding="UTF-8"?>
<svg width="24px" height="24px" viewBox="0 0 24 24" version="1.1" xmlns="http://www.w3.org/2000/svg" xmlns:xlink="http://www.w3.org/1999/xlink">
    <!-- Generator: Sketch 54.1 (76490) - https://sketchapp.com -->
    <title>Icons/Alarm</title>
    <desc>Created with Sketch.</desc>
    <defs>
        <path d="M12,19.8902 C8.135,19.8902 5,16.7547 5,12.8902 C5,9.0252 8.135,5.8902 12,5.8902 C15.865,5.8902 19,9.0252 19,12.8902 C19,16.7547 15.87,19.8902 12,19.8902 L12,19.8902 Z M11.995,3.8902 C7.02,3.8902 3,7.9202 3,12.8902 C3,17.8597 7.02,21.8902 11.995,21.8902 C16.97,21.8902 21,17.8597 21,12.8902 C21,7.9202 16.97,3.8902 11.995,3.8902 L11.995,3.8902 Z M12.5,7.8902 L11,7.8902 L11,13.8902 L15.745,16.7452 L16.5,15.5097 L12.5,13.1402 L12.5,7.8902 Z M7.88,3.2797 L6.595,1.7502 L2,5.6052 L3.285,7.1347 L7.88,3.2797 Z M22,5.6097 L17.405,1.7547 L16.12,3.2852 L20.715,7.1402 L22,5.6097 Z" id="path-1"></path>
    </defs>
    <g id="Icons/Alarm" stroke="none" stroke-width="1" fill="none" fill-rule="evenodd">
        <mask id="mask-2" fill="white">
            <use xlink:href="#path-1"></use>
        </mask>
        <use id="Mask" fill="#000000" xlink:href="#path-1"></use>
    </g>
</svg>