<?xml version="1.0" encoding="UTF-8"?>
<svg width="24px" height="24px" viewBox="0 0 24 24" version="1.1" xmlns="http://www.w3.org/2000/svg" xmlns:xlink="http://www.w3.org/1999/xlink">
    <!-- Generator: Sketch 54.1 (76490) - https://sketchapp.com -->
    <title>Icons/Attachment</title>
    <desc>Created with Sketch.</desc>
    <g id="Icons/Attachment" stroke="none" stroke-width="1" fill="none" fill-rule="evenodd">
        <path d="M7.5,17.4999 C4.46,17.4999 2,15.0349 2,11.9999 C2,8.9654 4.46,6.4999 7.5,6.4999 L18,6.4999 C20.21,6.4999 22,8.2899 22,10.4999 C22,12.7099 20.21,14.4999 18,14.4999 L9.5,14.4999 C8.12,14.4999 7,13.3799 7,11.9999 C7,10.6199 8.12,9.4999 9.5,9.4999 L17,9.4999 L17,10.9999 L9.5,10.9999 C8.95,10.9999 8.5,11.4454 8.5,11.9999 C8.5,12.5549 8.95,12.9999 9.5,12.9999 L18,12.9999 C19.38,12.9999 20.5,11.8799 20.5,10.4999 C20.5,9.1199 19.38,7.9999 18,7.9999 L7.5,7.9999 C5.29,7.9999 3.5,9.7899 3.5,11.9999 C3.5,14.2099 5.29,15.9999 7.5,15.9999 L17,15.9999 L17,17.4999 L7.5,17.4999 Z" id="Mask" fill="#000000"></path>
    </g>
</svg>