<?xml version="1.0" encoding="UTF-8"?>
<svg width="24px" height="24px" viewBox="0 0 24 24" version="1.1" xmlns="http://www.w3.org/2000/svg" xmlns:xlink="http://www.w3.org/1999/xlink">
    <!-- Generator: Sketch 54.1 (76490) - https://sketchapp.com -->
    <title>Icons/Award</title>
    <desc>Created with Sketch.</desc>
    <defs>
        <path d="M15.5628776,11.292 L13.1324314,10.98975 L12.0624401,9 L10.9933238,10.98975 L8.56287757,11.29125 L10.3310315,12.82275 L9.90058536,15 L12.0624401,13.95675 L14.2251698,15 L13.7947236,12.8235 L15.5628776,11.292 Z M16.9699225,14.3427897 C16.9638088,14.357298 17.0829756,14.3592147 17.3274232,14.3485401 C17.434159,14.3481053 17.5033204,14.3477963 17.5349073,14.3476131 C18.8061562,14.3402384 20.2892799,14.3316346 21.9842784,14.3218018 L20.378773,12.3511104 L22,10.491555 L16.9533275,10.5126782 C17.3269359,11.1407196 17.5967525,12.8552848 16.9699225,14.3427897 Z M6.97675317,14.4581282 C6.9834121,14.472634 6.90462677,14.474929 6.74039717,14.465013 C6.63192344,14.4648054 6.56163601,14.4646432 6.5295349,14.4645263 C5.23759181,14.4598218 3.73032488,14.4543333 2.00773409,14.4480607 L3.64363643,12.442041 L2,10.5560307 L6.96901908,10.5660983 C6.57397935,11.1464286 6.24202202,12.8575907 6.97675317,14.4581282 Z M12.0628776,17 C9.57759619,17 7.56287757,14.9852814 7.56287757,12.5 C7.56287757,10.0147186 9.57759619,8 12.0628776,8 C14.5481589,8 16.5628776,10.0147186 16.5628776,12.5 C16.5628776,14.9852814 14.5481589,17 12.0628776,17 Z" id="path-1"></path>
    </defs>
    <g id="Icons/Award" stroke="none" stroke-width="1" fill="none" fill-rule="evenodd">
        <mask id="mask-2" fill="white">
            <use xlink:href="#path-1"></use>
        </mask>
        <use id="Mask" fill="#000000" xlink:href="#path-1"></use>
    </g>
</svg>