<?xml version="1.0" encoding="UTF-8"?>
<svg width="24px" height="24px" viewBox="0 0 24 24" version="1.1" xmlns="http://www.w3.org/2000/svg" xmlns:xlink="http://www.w3.org/1999/xlink">
    <!-- Generator: Sketch 54.1 (76490) - https://sketchapp.com -->
    <title>Icons/Calendar</title>
    <desc>Created with Sketch.</desc>
    <defs>
        <path d="M18.3333333,18.3333333 L15.1666667,18.3333333 L15.1666667,15.1666667 L18.3333333,15.1666667 L18.3333333,18.3333333 Z M13.5833333,10.4166667 L10.4166667,10.4166667 L10.4166667,13.5833333 L13.5833333,13.5833333 L13.5833333,10.4166667 Z M18.3333333,10.4166667 L15.1666667,10.4166667 L15.1666667,13.5833333 L18.3333333,13.5833333 L18.3333333,10.4166667 Z M8.83333333,15.1666667 L5.66666667,15.1666667 L5.66666667,18.3333333 L8.83333333,18.3333333 L8.83333333,15.1666667 Z M13.5833333,15.1666667 L10.4166667,15.1666667 L10.4166667,18.3333333 L13.5833333,18.3333333 L13.5833333,15.1666667 Z M8.83333333,10.4166667 L5.66666667,10.4166667 L5.66666667,13.5833333 L8.83333333,13.5833333 L8.83333333,10.4166667 Z M21.5,4.08333333 L21.5,21.5 L2.5,21.5 L2.5,4.08333333 L4.875,4.08333333 L4.875,4.875 C4.875,5.74820833 5.585125,6.45833333 6.45833333,6.45833333 C7.33154167,6.45833333 8.04166667,5.74820833 8.04166667,4.875 L8.04166667,4.08333333 L15.9583333,4.08333333 L15.9583333,4.875 C15.9583333,5.74820833 16.6684583,6.45833333 17.5416667,6.45833333 C18.414875,6.45833333 19.125,5.74820833 19.125,4.875 L19.125,4.08333333 L21.5,4.08333333 Z M19.9166667,8.83333333 L4.08333333,8.83333333 L4.08333333,19.9166667 L19.9166667,19.9166667 L19.9166667,8.83333333 Z M18.3333333,3.29166667 C18.3333333,2.85466667 17.9794583,2.5 17.5416667,2.5 C17.103875,2.5 16.75,2.85466667 16.75,3.29166667 L16.75,4.875 C16.75,5.312 17.103875,5.66666667 17.5416667,5.66666667 C17.9794583,5.66666667 18.3333333,5.312 18.3333333,4.875 L18.3333333,3.29166667 Z M7.25,4.875 C7.25,5.312 6.896125,5.66666667 6.45833333,5.66666667 C6.02054167,5.66666667 5.66666667,5.312 5.66666667,4.875 L5.66666667,3.29166667 C5.66666667,2.85466667 6.02054167,2.5 6.45833333,2.5 C6.896125,2.5 7.25,2.85466667 7.25,3.29166667 L7.25,4.875 Z" id="path-1"></path>
    </defs>
    <g id="Icons/Calendar" stroke="none" stroke-width="1" fill="none" fill-rule="evenodd">
        <mask id="mask-2" fill="white">
            <use xlink:href="#path-1"></use>
        </mask>
        <use id="Mask" fill="#418fde" xlink:href="#path-1"></use>
    </g>
</svg>