<?xml version="1.0" encoding="UTF-8"?>
<svg width="24px" height="24px" viewBox="0 0 24 24" version="1.1" xmlns="http://www.w3.org/2000/svg" xmlns:xlink="http://www.w3.org/1999/xlink">
    <!-- Generator: Sketch 54.1 (76490) - https://sketchapp.com -->
    <title>Icons/Facebook</title>
    <desc>Created with Sketch.</desc>
    <g id="Icons/Facebook" stroke="none" stroke-width="1" fill="none" fill-rule="evenodd">
        <path d="M16.0616137,22 L16.0616137,14.2674245 L18.8214037,14.2674245 L18.9710384,11.4662084 L16.0616137,11.4662084 L16.0616137,9.34763544 C16.0616137,8.33781825 16.0616137,7.86902742 17.7314912,7.86902742 L19.384673,7.86902742 L19.384673,5 C19.1036322,5.0834299 18.2342251,5 17.2355262,5 C14.7546712,5 13.4493714,6.41963678 13.4855801,8.60081839 L13.4855801,11.4662084 L10.6833205,11.4662084 L10.6833205,14.2674245 L13.4855801,14.2674245 L13.4855801,22 L5,22 C3.8954305,22 3,21.1045695 3,20 L3,4 C3,2.8954305 3.8954305,2 5,2 L20,2 C21.1045695,2 22,2.8954305 22,4 L22,20 C22,21.1045695 21.1045695,22 20,22 L16.0616137,22 Z" id="Path" fill="#000000"></path>
    </g>
</svg>