<?xml version="1.0" encoding="UTF-8"?>
<svg width="24px" height="24px" viewBox="0 0 24 24" version="1.1" xmlns="http://www.w3.org/2000/svg" xmlns:xlink="http://www.w3.org/1999/xlink">
    <!-- Generator: Sketch 54.1 (76490) - https://sketchapp.com -->
    <title>Icons/Globe</title>
    <desc>Created with Sketch.</desc>
    <defs>
        <path d="M17.89505,17.14525 C17.64005,16.33525 16.89005,15.75025 16.00005,15.75025 L15.00005,15.75025 L15.00005,12.75025 C15.00005,12.19975 14.55005,11.75025 14.00005,11.75025 L8.00005,11.75025 L8.00005,9.75025 L10.00005,9.75025 C10.55005,9.75025 11.00005,9.30025 11.00005,8.75025 L11.00005,6.75025 L13.00005,6.75025 C14.10505,6.75025 15.00005,5.85525 15.00005,4.75025 L15.00005,4.33525 C17.93005,5.52025 20.00005,8.38975 20.00005,11.75025 C20.00005,13.82975 19.20005,15.71975 17.89505,17.14525 L17.89505,17.14525 Z M11.00005,19.67975 C7.05505,19.19025 4.00005,15.82975 4.00005,11.75025 C4.00005,11.13475 4.07505,10.53475 4.21005,9.96025 L9.00005,14.75025 L9.00005,15.75025 C9.00005,16.85525 9.89505,17.75025 11.00005,17.75025 L11.00005,19.67975 Z M12.00005,1.75025 C6.47505,1.75025 2.00005,6.22475 2.00005,11.75025 C2.00005,17.27525 6.47505,21.75025 12.00005,21.75025 C17.52505,21.75025 22.00005,17.27525 22.00005,11.75025 C22.00005,6.22475 17.52505,1.75025 12.00005,1.75025 L12.00005,1.75025 Z" id="path-1"></path>
    </defs>
    <g id="Icons/Globe" stroke="none" stroke-width="1" fill="none" fill-rule="evenodd">
        <mask id="mask-2" fill="white">
            <use xlink:href="#path-1"></use>
        </mask>
        <use id="Mask" fill="#418FDE" xlink:href="#path-1"></use>
    </g>
</svg>