<?xml version="1.0" encoding="UTF-8"?>
<svg width="24px" height="24px" viewBox="0 0 24 24" version="1.1" xmlns="http://www.w3.org/2000/svg" xmlns:xlink="http://www.w3.org/1999/xlink">
    <!-- Generator: Sketch 54.1 (76490) - https://sketchapp.com -->
    <title>Icons/Google+</title>
    <desc>Created with Sketch.</desc>
    <defs>
        <path d="M7.98258523,10.6162162 L7.98258523,13.3891892 C7.98258523,13.3891892 10.6644592,13.3837838 11.7598725,13.3837838 C11.1662987,15.1783784 10.2489576,16.1567568 7.98258523,16.1567568 C5.68923228,16.1567568 3.90311504,14.2972973 3.90311504,12 C3.90311504,9.7027027 5.6946284,7.84324324 7.98258523,7.84324324 C9.19671327,7.84324324 9.97915134,8.27027027 10.6968359,8.86486486 C11.2742212,8.28648649 11.2256561,8.20540541 12.6880059,6.82162162 C11.4468972,5.69189189 9.7956831,5 7.98798136,5 C4.12975227,5 1,8.13513514 1,12 C1,15.8648649 4.12975227,19 7.98798136,19 C13.7564386,19 15.1648271,13.9675676 14.6953642,10.6162162 L7.98258523,10.6162162 Z M20.4903455,11.7552846 L20.4903455,9.2 L18.7017276,9.2 L18.7017276,11.7552846 L16.125,11.7552846 L16.125,13.5764228 L18.7017276,13.5764228 L18.7017276,16.2 L20.4903455,16.2 L20.4903455,13.5764228 L23,13.5764228 L23,11.7552846 L20.4903455,11.7552846 Z" id="path-1"></path>
    </defs>
    <g id="Icons/Google+" stroke="none" stroke-width="1" fill="none" fill-rule="evenodd">
        <mask id="mask-2" fill="white">
            <use xlink:href="#path-1"></use>
        </mask>
        <use id="G+" fill="#000000" xlink:href="#path-1"></use>
    </g>
</svg>