<?xml version="1.0" encoding="UTF-8"?>
<svg width="24px" height="24px" viewBox="0 0 24 24" version="1.1" xmlns="http://www.w3.org/2000/svg" xmlns:xlink="http://www.w3.org/1999/xlink">
    <!-- Generator: Sketch 54.1 (76490) - https://sketchapp.com -->
    <title>Icons/Instagram</title>
    <desc>Created with Sketch.</desc>
    <defs>
        <path d="M20.5270479,6.10200927 C20.7496136,6.67233385 20.9026275,7.32612056 20.9443586,8.28593509 C20.9930448,9.24574961 21,9.55177743 21,12 C21,14.4482226 20.9860896,14.7542504 20.9443586,15.7140649 C20.9026275,16.6669243 20.7496136,17.3276662 20.5270479,17.8979907 C20.297527,18.4891808 19.9914992,18.9899536 19.4907264,19.4907264 C18.9899536,19.9914992 18.4891808,20.297527 17.8979907,20.5270479 C17.3276662,20.7496136 16.6738794,20.9026275 15.7140649,20.9443586 C14.7542504,20.9930448 14.4482226,21 12,21 C9.55177743,21 9.24574961,20.9860896 8.28593509,20.9443586 C7.33307573,20.9026275 6.67233385,20.7496136 6.10200927,20.5270479 C5.51081917,20.297527 5.01004637,19.9914992 4.50927357,19.4907264 C4.00850077,18.9899536 3.70247295,18.4891808 3.47295209,17.8979907 C3.2503864,17.3276662 3.09737249,16.6738794 3.05564142,15.7140649 C3.00695518,14.7542504 3,14.4482226 3,12 C3,9.55177743 3.01391036,9.24574961 3.05564142,8.28593509 C3.09737249,7.33307573 3.2503864,6.67233385 3.47295209,6.10200927 C3.70247295,5.51081917 4.00850077,5.01004637 4.50927357,4.50927357 C5.01004637,4.00850077 5.51081917,3.70247295 6.10200927,3.47295209 C6.67233385,3.2503864 7.32612056,3.09737249 8.28593509,3.05564142 C9.24574961,3.00695518 9.55177743,3 12,3 C14.4482226,3 14.7542504,3.01391036 15.7140649,3.05564142 C16.6669243,3.09737249 17.3276662,3.2503864 17.8979907,3.47295209 C18.4891808,3.70247295 18.9899536,4.00850077 19.4907264,4.50927357 C19.9914992,5.01004637 20.297527,5.51081917 20.5270479,6.10200927 Z M18.6991525,15.3241525 C18.7372881,14.4597458 18.75,14.1927966 18.75,12 C18.75,9.80720339 18.7372881,9.54661017 18.6991525,8.67584746 C18.6610169,7.875 18.5275424,7.44279661 18.4131356,7.15042373 C18.2605932,6.76271186 18.0826271,6.48940678 17.7966102,6.20338983 C17.5105932,5.91737288 17.2309322,5.73305085 16.8495763,5.58686441 C16.5635593,5.47245763 16.125,5.33898305 15.3241525,5.30084746 C14.4597458,5.25635593 14.1927966,5.25 12,5.25 C9.80720339,5.25 9.54661017,5.26271186 8.67584746,5.30084746 C7.875,5.33898305 7.44279661,5.47245763 7.15042373,5.58686441 C6.76271186,5.73940678 6.48940678,5.91737288 6.20338983,6.20338983 C5.91737288,6.48940678 5.73305085,6.7690678 5.58686441,7.15042373 C5.47245763,7.43644068 5.33898305,7.875 5.30084746,8.67584746 C5.25635593,9.54025424 5.25,9.80720339 5.25,12 C5.25,14.1927966 5.26271186,14.4533898 5.30084746,15.3241525 C5.33898305,16.125 5.47245763,16.5572034 5.58686441,16.8495763 C5.73940678,17.2372881 5.91737288,17.5105932 6.20338983,17.7966102 C6.48940678,18.0826271 6.7690678,18.2669492 7.15042373,18.4131356 C7.43644068,18.5275424 7.875,18.6610169 8.67584746,18.6991525 C9.54025424,18.7436441 9.80084746,18.75 12,18.75 C14.1991525,18.75 14.4533898,18.7372881 15.3241525,18.6991525 C16.125,18.6610169 16.5572034,18.5275424 16.8495763,18.4131356 C17.2372881,18.2605932 17.5105932,18.0826271 17.7966102,17.7966102 C18.0826271,17.5105932 18.2669492,17.2309322 18.4131356,16.8495763 C18.5275424,16.5635593 18.6610169,16.125 18.6991525,15.3241525 Z M16.5,8.625 C15.8786797,8.625 15.375,8.12132034 15.375,7.5 C15.375,6.87867966 15.8786797,6.375 16.5,6.375 C17.1213203,6.375 17.625,6.87867966 17.625,7.5 C17.625,8.12132034 17.1213203,8.625 16.5,8.625 Z M12,7.5 C14.4834586,7.5 16.5,9.51654135 16.5,12 C16.5,14.4834586 14.4834586,16.5 12,16.5 C9.51654135,16.5 7.5,14.4834586 7.5,12 C7.5,9.51654135 9.51654135,7.5 12,7.5 Z M12,14.25 C13.2395833,14.25 14.25,13.2395833 14.25,12 C14.25,10.7552083 13.2447917,9.75 12,9.75 C10.7552083,9.75 9.75,10.7604167 9.75,12 C9.75,13.2447917 10.7604167,14.25 12,14.25 Z" id="path-1"></path>
    </defs>
    <g id="Icons/Instagram" stroke="none" stroke-width="1" fill="none" fill-rule="evenodd">
        <mask id="mask-2" fill="white">
            <use xlink:href="#path-1"></use>
        </mask>
        <use id="Instagram" fill="#000000" xlink:href="#path-1"></use>
    </g>
</svg>