<?xml version="1.0" encoding="UTF-8"?>
<svg width="24px" height="24px" viewBox="0 0 24 24" version="1.1" xmlns="http://www.w3.org/2000/svg" xmlns:xlink="http://www.w3.org/1999/xlink">
    <!-- Generator: Sketch 54.1 (76490) - https://sketchapp.com -->
    <title>Icons/Link</title>
    <desc>Created with Sketch.</desc>
    <defs>
        <path d="M17,7.0002 L13,7.0002 L13,8.9002 L17,8.9002 C18.71,8.9002 20.1,10.2902 20.1,12.0002 C20.1,13.7102 18.71,15.0997 17,15.0997 L13,15.0997 L13,17.0002 L17,17.0002 C19.7605,17.0002 22,14.7602 22,12.0002 C22,9.2397 19.7605,7.0002 17,7.0002 L17,7.0002 Z M8,13.0002 L16,13.0002 L16,11.0002 L8,11.0002 L8,13.0002 Z M3.9,12.0002 C3.9,10.2902 5.29,8.9002 7,8.9002 L11,8.9002 L11,7.0002 L7,7.0002 C4.24,7.0002 2,9.2397 2,12.0002 C2,14.7602 4.24,17.0002 7,17.0002 L11,17.0002 L11,15.0997 L7,15.0997 C5.29,15.0997 3.9,13.7102 3.9,12.0002 L3.9,12.0002 Z" id="path-1"></path>
    </defs>
    <g id="Icons/Link" stroke="none" stroke-width="1" fill="none" fill-rule="evenodd">
        <mask id="mask-2" fill="white">
            <use xlink:href="#path-1"></use>
        </mask>
        <use id="Mask" fill="#000000" xlink:href="#path-1"></use>
    </g>
</svg>