<?xml version="1.0" encoding="UTF-8"?>
<svg width="24px" height="24px" viewBox="0 0 24 24" version="1.1" xmlns="http://www.w3.org/2000/svg" xmlns:xlink="http://www.w3.org/1999/xlink">
    <!-- Generator: Sketch 54.1 (76490) - https://sketchapp.com -->
    <title>Icons/Live Chat</title>
    <desc>Created with Sketch.</desc>
    <g id="Icons/Live-Chat" stroke="none" stroke-width="1" fill="none" fill-rule="evenodd">
        <path d="M11.6,4.63636364 C16.0112,4.63636364 19.6,7.57527273 19.6,11.1875455 C19.6,15.2105455 15.484,17.7010909 11.672,17.7010909 C10.1224,17.7010909 8.9656,17.3762727 8.1568,17.1741818 C7.3568,17.6757273 6.8808,18.0226364 4.7392,18.6632727 C5.1672,17.5399091 5.3176,16.4149091 5.2208,15.1737273 C4.5504,14.3555455 3.6008,13.2100909 3.6008,11.1875455 C3.6,7.57527273 7.1888,4.63636364 11.6,4.63636364 Z M11.6,3 C6.5296,3 2,6.45763636 2,11.1875455 C2,12.8648182 2.5904,14.5118182 3.6376,15.7898182 C3.6816,17.2870909 2.8192,19.4356364 2.0432,21 C4.1248,20.6154545 7.084,19.7661818 8.4256,18.9250909 C9.56,19.2073636 10.6456,19.3366364 11.6728,19.3366364 C17.34,19.3366364 21.2008,15.3790909 21.2008,11.1867273 C21.2,6.43227273 16.6392,3 11.6,3 Z M8.8,11.1818182 C8.8,11.8600909 8.2632,12.4090909 7.6,12.4090909 C6.9376,12.4090909 6.4,11.8600909 6.4,11.1818182 C6.4,10.5035455 6.9376,9.95454545 7.6,9.95454545 C8.2632,9.95454545 8.8,10.5035455 8.8,11.1818182 Z M11.6,9.95454545 C10.9376,9.95454545 10.4,10.5035455 10.4,11.1818182 C10.4,11.8600909 10.9376,12.4090909 11.6,12.4090909 C12.2632,12.4090909 12.8,11.8600909 12.8,11.1818182 C12.8,10.5035455 12.2632,9.95454545 11.6,9.95454545 Z M15.6,9.95454545 C14.9376,9.95454545 14.4,10.5035455 14.4,11.1818182 C14.4,11.8600909 14.9376,12.4090909 15.6,12.4090909 C16.2632,12.4090909 16.8,11.8600909 16.8,11.1818182 C16.8,10.5035455 16.2632,9.95454545 15.6,9.95454545 Z" id="Live-Chat" fill="#000000"></path>
    </g>
</svg>