<?xml version="1.0" encoding="UTF-8"?>
<svg width="24px" height="24px" viewBox="0 0 24 24" version="1.1" xmlns="http://www.w3.org/2000/svg" xmlns:xlink="http://www.w3.org/1999/xlink">
    <!-- Generator: Sketch 54.1 (76490) - https://sketchapp.com -->
    <title>Icons/Lock</title>
    <desc>Created with Sketch.</desc>
    <defs>
        <path d="M15.0998,8.5002 L8.9003,8.5002 L8.9003,6.5002 C8.9003,4.7902 10.2903,3.4002 12.0003,3.4002 C13.7103,3.4002 15.0998,4.7902 15.0998,6.5002 L15.0998,8.5002 Z M12.0003,17.5002 C10.8953,17.5002 10.0003,16.6052 10.0003,15.5002 C10.0003,14.3952 10.8953,13.5002 12.0003,13.5002 C13.1053,13.5002 14.0003,14.3952 14.0003,15.5002 C14.0003,16.6052 13.1053,17.5002 12.0003,17.5002 L12.0003,17.5002 Z M18.0003,8.5002 L17.0003,8.5002 L17.0003,6.5002 C17.0003,3.7397 14.7598,1.5002 12.0003,1.5002 C9.2398,1.5002 7.0003,3.7397 7.0003,6.5002 L7.0003,8.5002 L6.0003,8.5002 C4.8953,8.5002 4.0003,9.3952 4.0003,10.5002 L4.0003,20.5002 C4.0003,21.6052 4.8953,22.5002 6.0003,22.5002 L18.0003,22.5002 C19.1053,22.5002 20.0003,21.6052 20.0003,20.5002 L20.0003,10.5002 C20.0003,9.3952 19.1053,8.5002 18.0003,8.5002 L18.0003,8.5002 Z" id="path-1"></path>
    </defs>
    <g id="Icons/Lock" stroke="none" stroke-width="1" fill="none" fill-rule="evenodd">
        <mask id="mask-2" fill="white">
            <use xlink:href="#path-1"></use>
        </mask>
        <use id="Mask" fill="#000000" xlink:href="#path-1"></use>
    </g>
</svg>