<?xml version="1.0" encoding="UTF-8"?>
<svg width="24px" height="24px" viewBox="0 0 24 24" version="1.1" xmlns="http://www.w3.org/2000/svg" xmlns:xlink="http://www.w3.org/1999/xlink">
    <!-- Generator: Sketch 54.1 (76490) - https://sketchapp.com -->
    <title>Icons/More Info</title>
    <desc>Created with Sketch.</desc>
    <g id="Icons/More-Info" stroke="none" stroke-width="1" fill="none" fill-rule="evenodd">
        <g id="Group" transform="translate(3.000000, 3.000000)">
            <path d="M8.36,11.832 L8.36,10.856 C8.36,10.5679986 8.38133312,10.328001 8.424,10.136 C8.46666688,9.94399904 8.53066624,9.77066744 8.616,9.616 C8.70133376,9.46133256 8.81599928,9.31200072 8.96,9.168 C9.10400072,9.02399928 9.2826656,8.85066768 9.496,8.648 C9.66666752,8.4879992 9.83733248,8.32533416 10.008,8.16 C10.1786675,7.99466584 10.3333326,7.82400088 10.472,7.648 C10.6106674,7.47199912 10.7253329,7.28533432 10.816,7.088 C10.9066671,6.89066568 10.952,6.66933456 10.952,6.424 C10.952,6.17866544 10.9066671,5.95200104 10.816,5.744 C10.7253329,5.53599896 10.6053341,5.35733408 10.456,5.208 C10.3066659,5.05866592 10.128001,4.94133376 9.92,4.856 C9.71199896,4.77066624 9.49066784,4.728 9.256,4.728 C8.73333072,4.728 8.30933496,4.89333168 7.984,5.224 C7.65866504,5.55466832 7.46400032,5.986664 7.4,6.52 L5.768,6.36 C5.90666736,5.43199536 6.29333016,4.70400264 6.928,4.176 C7.56266984,3.64799736 8.34932864,3.384 9.288,3.384 C9.73600224,3.384 10.1546647,3.450666 10.544,3.584 C10.9333353,3.717334 11.2719986,3.90933208 11.56,4.16 C11.8480014,4.41066792 12.0746658,4.71999816 12.24,5.088 C12.4053342,5.45600184 12.488,5.87466432 12.488,6.344 C12.488,6.74933536 12.4293339,7.10399848 12.312,7.408 C12.1946661,7.71200152 12.0293344,7.997332 11.816,8.264 L10.856,9.256 L10.696,9.4 C10.5253325,9.5600008 10.3893338,9.69599944 10.288,9.808 C10.1866662,9.92000056 10.106667,10.0373327 10.048,10.16 C9.98933304,10.2826673 9.94933344,10.4186659 9.928,10.568 C9.90666656,10.7173341 9.896,10.9039989 9.896,11.128 L9.896,11.832 L8.36,11.832 Z M8.056,14.04 C8.056,13.7519986 8.15999896,13.504001 8.368,13.296 C8.57600104,13.087999 8.82399856,12.984 9.112,12.984 C9.40000144,12.984 9.64799896,13.087999 9.856,13.296 C10.064001,13.504001 10.168,13.7519986 10.168,14.04 C10.168,14.3280014 10.064001,14.575999 9.856,14.784 C9.64799896,14.992001 9.40000144,15.096 9.112,15.096 C8.82399856,15.096 8.57600104,14.992001 8.368,14.784 C8.15999896,14.575999 8.056,14.3280014 8.056,14.04 Z" id="?" fill="#C1C6C8"></path>
            <circle id="Oval" stroke="#C1C6C8" cx="9" cy="9" r="9"></circle>
        </g>
    </g>
</svg>