<?xml version="1.0" encoding="UTF-8"?>
<svg width="24px" height="24px" viewBox="0 0 24 24" version="1.1" xmlns="http://www.w3.org/2000/svg" xmlns:xlink="http://www.w3.org/1999/xlink">
    <!-- Generator: Sketch 54.1 (76490) - https://sketchapp.com -->
    <title>Icons/Refresh</title>
    <desc>Created with Sketch.</desc>
    <g id="Icons/Refresh" stroke="none" stroke-width="1" fill="none" fill-rule="evenodd">
        <path d="M17.6401,6.3501 C16.1951,4.9001 14.2001,4.0001 11.9901,4.0001 C7.5701,4.0001 4.0001,7.5801 4.0001,12.0001 C4.0001,16.4201 7.5701,20.0001 11.9901,20.0001 C15.7151,20.0001 18.8351,17.4501 19.7201,14.0001 L17.6401,14.0001 C16.8151,16.3301 14.6051,18.0001 11.9901,18.0001 C8.6751,18.0001 5.9901,15.3151 5.9901,12.0001 C5.9901,8.6851 8.6751,6.0001 11.9901,6.0001 C13.6451,6.0001 15.1301,6.6901 16.2151,7.7751 L12.9901,11.0001 L19.9901,11.0001 L19.9901,4.0001 L17.6401,6.3501 Z" id="Mask" fill="#000000"></path>
    </g>
</svg>