<?xml version="1.0" encoding="UTF-8"?>
<svg width="24px" height="24px" viewBox="0 0 24 24" version="1.1" xmlns="http://www.w3.org/2000/svg" xmlns:xlink="http://www.w3.org/1999/xlink">
    <!-- Generator: Sketch 54.1 (76490) - https://sketchapp.com -->
    <title>Icons/Settings</title>
    <desc>Created with Sketch.</desc>
    <defs>
        <path d="M11.9771,15.4998 C10.0421,15.4998 8.4771,13.9348 8.4771,11.9998 C8.4771,10.0653 10.0421,8.4998 11.9771,8.4998 C13.9121,8.4998 15.4771,10.0653 15.4771,11.9998 C15.4771,13.9348 13.9121,15.4998 11.9771,15.4998 L11.9771,15.4998 Z M19.4071,12.9748 C19.4471,12.6553 19.4771,12.3298 19.4771,11.9998 C19.4771,11.6703 19.4471,11.3448 19.4071,11.0253 L21.5221,9.3698 C21.7121,9.2198 21.7671,8.9498 21.6421,8.7298 L19.6421,5.2648 C19.5171,5.0503 19.2571,4.9598 19.0321,5.0503 L16.5421,6.0548 C16.0271,5.6598 15.4621,5.3248 14.8521,5.0703 L14.4771,2.4203 C14.4321,2.1848 14.2271,1.9998 13.9771,1.9998 L9.9771,1.9998 C9.7271,1.9998 9.5221,2.1848 9.4821,2.4203 L9.1071,5.0703 C8.4971,5.3248 7.9321,5.6553 7.4171,6.0548 L4.9271,5.0503 C4.7021,4.9653 4.4421,5.0503 4.3171,5.2648 L2.3171,8.7298 C2.1921,8.9453 2.2471,9.2153 2.4371,9.3698 L4.5471,11.0253 C4.5071,11.3448 4.4771,11.6703 4.4771,11.9998 C4.4771,12.3298 4.5071,12.6553 4.5471,12.9748 L2.4371,14.6303 C2.2471,14.7803 2.1921,15.0503 2.3171,15.2698 L4.3171,18.7353 C4.4421,18.9498 4.7021,19.0398 4.9271,18.9498 L7.4171,17.9453 C7.9321,18.3403 8.4971,18.6753 9.1071,18.9298 L9.4821,21.5798 C9.5221,21.8153 9.7271,21.9998 9.9771,21.9998 L13.9771,21.9998 C14.2271,21.9998 14.4321,21.8153 14.4721,21.5798 L14.8471,18.9298 C15.4571,18.6753 16.0221,18.3448 16.5371,17.9453 L19.0271,18.9498 C19.2521,19.0348 19.5121,18.9498 19.6371,18.7353 L21.6371,15.2698 C21.7621,15.0548 21.7071,14.7848 21.5171,14.6303 L19.4071,12.9748 Z" id="path-1"></path>
    </defs>
    <g id="Icons/Settings" stroke="none" stroke-width="1" fill="none" fill-rule="evenodd">
        <mask id="mask-2" fill="white">
            <use xlink:href="#path-1"></use>
        </mask>
        <use id="Mask" fill="#000000" xlink:href="#path-1"></use>
    </g>
</svg>