<?xml version="1.0" encoding="UTF-8"?>
<svg width="24px" height="24px" viewBox="0 0 24 24" version="1.1" xmlns="http://www.w3.org/2000/svg" xmlns:xlink="http://www.w3.org/1999/xlink">
    <!-- Generator: Sketch 54.1 (76490) - https://sketchapp.com -->
    <title>Icons/Tip</title>
    <desc>Created with Sketch.</desc>
    <g id="Icons/Tip" stroke="none" stroke-width="1" fill="none" fill-rule="evenodd">
        <path d="M8.43728616,8.46877253 C10.4020779,6.51040916 13.5990818,6.51040916 15.5638736,8.46877253 C17.5122863,10.4127608 17.4735084,13.4954525 15.4756785,15.4870322 C15.4388605,15.5237375 15.3972828,15.5549999 15.3516453,15.580261 C15.3226669,15.5986834 14.3798188,16.2069038 14.3798188,18.4417436 C14.3798188,18.7500407 14.1290926,19 13.8198497,19 L10.1800502,19 C9.8708072,19 9.62008101,18.7500407 9.62008101,18.4417436 C9.62008101,16.2069038 8.67723294,15.5986834 8.63705516,15.5739806 C8.59155766,15.5487195 8.56103934,15.5237375 8.52408138,15.4870322 C6.52597145,13.4950338 6.48789354,10.4122026 8.43728616,8.46877253 Z M13.2,22 C13.6418,22 14,22.223875 14,22.5 C14,22.776125 13.6418,23 13.2,23 L10.8,23 C10.3582,23 10,22.776125 10,22.5 C10,22.223875 10.3582,22 10.8,22 L13.2,22 Z M14.1428571,20 C14.6162143,20 15,20.223875 15,20.5 C15,20.776125 14.6162143,21 14.1428571,21 L9.85714286,21 C9.38378571,21 9,20.776125 9,20.5 C9,20.223875 9.38378571,20 9.85714286,20 L14.1428571,20 Z M12,5 C11.44775,5 11,4.61621429 11,4.14285714 L11,2.85714286 C11,2.38378571 11.44775,2 12,2 C12.55225,2 13,2.38378571 13,2.85714286 L13,4.14285714 C13,4.61621429 12.55225,5 12,5 Z M19,12 C19,11.44775 19.3837857,11 19.8571429,11 L21.1428571,11 C21.6162143,11 22,11.44775 22,12 C22,12.55225 21.6162143,13 21.1428571,13 L19.8571429,13 C19.3837857,13 19,12.55225 19,12 Z M2,12 C2,11.44775 2.38378571,11 2.85714286,11 L4.14285714,11 C4.61621429,11 5,11.44775 5,12 C5,12.55225 4.61621429,13 4.14285714,13 L2.85714286,13 C2.38378571,13 2,12.55225 2,12 Z M16.9497475,7.05025253 C16.5592477,6.65975281 16.5140182,6.07176827 16.8487322,5.73705422 L17.7578695,4.82791693 C18.0925835,4.49320289 18.6805681,4.53843247 19.0710678,4.92893219 C19.4615675,5.31943191 19.5067971,5.90741645 19.1720831,6.2421305 L18.2629458,7.15126779 C17.9282317,7.48598183 17.3402472,7.44075225 16.9497475,7.05025253 Z M4.92893219,19.0710678 C4.53843247,18.6805681 4.49320289,18.0925835 4.82791693,17.7578695 L5.73705422,16.8487322 C6.07176827,16.5140182 6.65975281,16.5592477 7.05025253,16.9497475 C7.44075225,17.3402472 7.48598183,17.9282317 7.15126779,18.2629458 L6.2421305,19.1720831 C5.90741645,19.5067971 5.31943191,19.4615675 4.92893219,19.0710678 Z M6.82842712,7.05025253 C6.4379274,7.44075225 5.84994286,7.48598183 5.51522882,7.15126779 L4.60609153,6.2421305 C4.27137748,5.90741645 4.31660706,5.31943191 4.70710678,4.92893219 C5.0976065,4.53843247 5.68559104,4.49320289 6.02030509,4.82791693 L6.92944238,5.73705422 C7.26415642,6.07176827 7.21892684,6.65975281 6.82842712,7.05025253 Z M18.8284271,19.0710678 C18.4379274,19.4615675 17.8499429,19.5067971 17.5152288,19.1720831 L16.6060915,18.2629458 C16.2713775,17.9282317 16.3166071,17.3402472 16.7071068,16.9497475 C17.0976065,16.5592477 17.685591,16.5140182 18.0203051,16.8487322 L18.9294424,17.7578695 C19.2641564,18.0925835 19.2189268,18.6805681 18.8284271,19.0710678 Z" id="Combined-Shape" fill="#000000"></path>
    </g>
</svg>