<?xml version="1.0" encoding="UTF-8"?>
<svg width="24px" height="24px" viewBox="0 0 24 24" version="1.1" xmlns="http://www.w3.org/2000/svg" xmlns:xlink="http://www.w3.org/1999/xlink">
    <!-- Generator: Sketch 54.1 (76490) - https://sketchapp.com -->
    <title>Icons/Twitter</title>
    <desc>Created with Sketch.</desc>
    <g id="Icons/Twitter" stroke="none" stroke-width="1" fill="none" fill-rule="evenodd">
        <path d="M22,6.77519231 C21.264191,7.07692308 20.4739935,7.28057692 19.6431608,7.37115385 C20.4902476,6.90269231 21.1410353,6.16076923 21.447987,5.27692308 C20.6546637,5.71019231 19.7769442,6.02634615 18.8423356,6.19538462 C18.0933983,5.45980769 17.0268817,5 15.8459615,5 C13.5797699,5 11.7436859,6.695 11.7436859,8.78634615 C11.7436859,9.08288462 11.7793198,9.3725 11.8493373,9.64942308 C8.43910978,9.49134615 5.41585396,7.98384615 3.3915979,5.69288462 C3.03900975,6.2525 2.83645911,6.90269231 2.83645911,7.59673077 C2.83645911,8.91096154 3.56101525,10.0694231 4.66129032,10.7490385 C3.98924731,10.7288462 3.35658915,10.5592308 2.80332583,10.2753846 C2.80270068,10.2909615 2.80270068,10.3076923 2.80270068,10.3226923 C2.80270068,12.1578846 4.2168042,13.6884615 6.09414854,14.0363462 C5.75031258,14.1223077 5.38772193,14.1690385 5.01325331,14.1690385 C4.74818705,14.1690385 4.49187297,14.1453846 4.24181045,14.1015385 C4.7631908,15.605 6.2791948,16.7 8.0740185,16.7311538 C6.67054264,17.7465385 4.90135034,18.3528846 2.97899475,18.3528846 C2.64766192,18.3528846 2.32070518,18.335 2,18.2998077 C3.81545386,19.3728846 5.97224306,20 8.28969742,20 C15.8365841,20 19.9644911,14.2301923 19.9644911,9.22596154 C19.9644911,9.06211538 19.9594899,8.89826923 19.951988,8.73557692 C20.7540635,8.20192308 21.4492373,7.53557692 22,6.77519231 Z" id="Twitter" fill="#000000"></path>
    </g>
</svg>