<?xml version="1.0" encoding="UTF-8"?>
<svg width="24px" height="24px" viewBox="0 0 24 24" version="1.1" xmlns="http://www.w3.org/2000/svg" xmlns:xlink="http://www.w3.org/1999/xlink">
    <!-- Generator: Sketch 54.1 (76490) - https://sketchapp.com -->
    <title>Icons/Vimeo</title>
    <desc>Created with Sketch.</desc>
    <defs>
        <path d="M19.9920113,9.23375168 C19.9223644,10.8112835 18.8348004,12.9688701 16.7293196,15.7065112 C14.5541917,18.5688371 12.7112263,20 11.2057806,20 C10.273583,20 9.48067925,19.1272075 8.83778433,17.3870435 C8.40918771,15.7878273 7.97523363,14.1940323 7.54663701,12.5948161 C7.06982328,10.8546521 6.55550734,9.98185957 6.00368919,9.98185957 C5.88582512,9.98185957 5.46258596,10.2366499 4.75004408,10.7462307 L4,9.76501671 C4.78754629,9.06569846 5.56973511,8.36095915 6.33585157,7.65621983 C7.39127074,6.73463765 8.17881703,6.25216227 8.70920534,6.20337263 C9.95213553,6.08410905 10.718252,6.94605944 11.0075547,8.78922381 C11.3182873,10.7787571 11.5325856,12.0147614 11.6558071,12.4972368 C12.0147568,14.1452426 12.4112086,14.9746666 12.8398052,14.9746666 C13.1719676,14.9746666 13.6755687,14.4379805 14.3506083,13.3700294 C15.0202905,12.3020782 15.3792402,11.4834964 15.4274573,10.925126 C15.5238916,10.0035439 15.1649419,9.5373317 14.3506083,9.5373317 C13.9648714,9.5373317 13.573777,9.62406884 13.1666102,9.80296421 C13.9541565,7.19542874 15.4542446,5.93231904 17.6722321,6.00279297 C19.3116142,6.04074048 20.0884455,7.11953374 19.9920113,9.23375168 Z" id="path-1"></path>
    </defs>
    <g id="Icons/Vimeo" stroke="none" stroke-width="1" fill="none" fill-rule="evenodd">
        <mask id="mask-2" fill="white">
            <use xlink:href="#path-1"></use>
        </mask>
        <use id="Mask" fill="#000000" xlink:href="#path-1"></use>
    </g>
</svg>