<?xml version="1.0" encoding="UTF-8"?>
<svg width="24px" height="24px" viewBox="0 0 24 24" version="1.1" xmlns="http://www.w3.org/2000/svg" xmlns:xlink="http://www.w3.org/1999/xlink">
    <!-- Generator: Sketch 54.1 (76490) - https://sketchapp.com -->
    <title>Icons/Web</title>
    <desc>Created with Sketch.</desc>
    <defs>
        <path d="M16.3601,14.0002 C16.4401,13.3447 16.5001,12.6797 16.5001,12.0002 C16.5001,11.3202 16.4451,10.6552 16.3601,10.0002 L19.7351,10.0002 C19.9001,10.6397 20.0001,11.3102 20.0001,12.0002 C20.0001,12.6902 19.9051,13.3602 19.7351,14.0002 L16.3601,14.0002 Z M14.5951,19.5602 C15.1951,18.4452 15.6501,17.2502 15.9751,16.0002 L18.9251,16.0002 C17.9601,17.6552 16.4301,18.9297 14.5951,19.5602 L14.5951,19.5602 Z M14.3401,14.0002 L9.6601,14.0002 C9.5651,13.3447 9.5001,12.6797 9.5001,12.0002 C9.5001,11.3202 9.5651,10.6552 9.6601,10.0002 L14.3401,10.0002 C14.4351,10.6552 14.5001,11.3202 14.5001,12.0002 C14.5001,12.6797 14.4351,13.3447 14.3401,14.0002 L14.3401,14.0002 Z M12.0001,19.9652 C11.1701,18.7647 10.5201,17.4297 10.0901,16.0002 L13.9101,16.0002 C13.4801,17.4297 12.8301,18.7647 12.0001,19.9652 L12.0001,19.9652 Z M8.0251,8.0002 L5.0751,8.0002 C6.0351,6.3447 7.5651,5.0652 9.4051,4.4352 C8.8051,5.5502 8.3501,6.7502 8.0251,8.0002 L8.0251,8.0002 Z M5.0751,16.0002 L8.0251,16.0002 C8.3501,17.2502 8.8051,18.4497 9.4051,19.5652 C7.5651,18.9352 6.0351,17.6552 5.0751,16.0002 L5.0751,16.0002 Z M4.2601,14.0002 C4.0951,13.3602 4.0001,12.6902 4.0001,12.0002 C4.0001,11.3102 4.0951,10.6397 4.2601,10.0002 L7.6351,10.0002 C7.5551,10.6552 7.5001,11.3202 7.5001,12.0002 C7.5001,12.6797 7.5551,13.3447 7.6401,14.0002 L4.2601,14.0002 Z M12.0001,4.0347 C12.8351,5.2352 13.4851,6.5702 13.9101,8.0002 L10.0901,8.0002 C10.5151,6.5702 11.1651,5.2352 12.0001,4.0347 L12.0001,4.0347 Z M18.9201,8.0002 L15.9701,8.0002 C15.6451,6.7502 15.1901,5.5502 14.5901,4.4402 C16.4301,5.0702 17.9601,6.3447 18.9201,8.0002 L18.9201,8.0002 Z M11.9951,2.0002 C6.4701,2.0002 2.0001,6.4747 2.0001,12.0002 C2.0001,17.5252 6.4701,22.0002 11.9951,22.0002 C17.5201,22.0002 22.0001,17.5252 22.0001,12.0002 C22.0001,6.4747 17.5201,2.0002 11.9951,2.0002 L11.9951,2.0002 Z" id="path-1"></path>
    </defs>
    <g id="Icons/Web" stroke="none" stroke-width="1" fill="none" fill-rule="evenodd">
        <mask id="mask-2" fill="white">
            <use xlink:href="#path-1"></use>
        </mask>
        <use id="Mask" fill="#000000" xlink:href="#path-1"></use>
    </g>
</svg>